<?xml version="1.0" standalone="no"?><!DOCTYPE svg PUBLIC "-//W3C//DTD SVG 1.1//EN" "http://www.w3.org/Graphics/SVG/1.1/DTD/svg11.dtd"><svg class="icon" width="64px" height="64.00px" viewBox="0 0 1024 1024" version="1.1" xmlns="http://www.w3.org/2000/svg"><path d="M644.740741 749.037037h75.851852c0 130.910815-104.00237 237.037037-232.296297 237.037037S256 879.947852 256 749.037037h75.851852c0 88.168296 70.039704 159.639704 156.444444 159.639704S644.740741 837.205333 644.740741 749.037037z" fill="#6160F4" /><path d="M180.176593 729.059556l-75.851852 1.014518A390.485333 390.485333 0 0 1 104.296296 724.830815V412.16C104.296296 200.239407 276.214519 28.444444 488.296296 28.444444S872.296296 200.248889 872.296296 412.16v312.670815c0 1.744593-0.009481 3.498667-0.037926 5.243259l-75.84237-1.014518 0.028444-4.228741V412.16C796.444444 242.100148 658.488889 104.239407 488.296296 104.239407S180.148148 242.100148 180.148148 412.169481v312.661334l0.028445 4.228741z" fill="#6360F0" /><path d="M97.706667 777.481481C69.973333 777.481481 47.407407 756.29037 47.407407 730.074074s22.556444-47.407407 50.29926-47.407407h762.216296C887.656296 682.666667 910.222222 703.857778 910.222222 730.074074c0 8.836741-2.56 17.114074-7.025778 24.187259C894.416593 768.170667 878.307556 777.481481 859.922963 777.481481H97.706667z" fill="#6360F0" /><path d="M621.037037 526.222222m-402.962963 0a402.962963 402.962963 0 1 0 805.925926 0 402.962963 402.962963 0 1 0-805.925926 0Z" fill="#6160F4" fill-opacity=".1" /></svg>