<?xml version="1.0" standalone="no"?><!DOCTYPE svg PUBLIC "-//W3C//DTD SVG 1.1//EN" "http://www.w3.org/Graphics/SVG/1.1/DTD/svg11.dtd"><svg class="icon" width="64px" height="64.00px" viewBox="0 0 1024 1024" version="1.1" xmlns="http://www.w3.org/2000/svg"><path d="M374.518519 104.296296v151.703704a37.925926 37.925926 0 1 1-75.851852 0V104.296296a37.925926 37.925926 0 1 1 75.851852 0zM753.777778 104.296296v151.703704a37.925926 37.925926 0 1 1-75.851852 0V104.296296a37.925926 37.925926 0 1 1 75.851852 0z" fill="#635FF1" /><path d="M309.731556 274.962963h556.240592C942.772148 274.962963 1005.037037 337.21837 1005.037037 414.027852v451.944296c0 76.8-62.255407 139.064889-139.064889 139.064889H309.731556C232.931556 1005.037037 170.666667 942.78163 170.666667 865.972148V414.027852C170.666667 337.227852 232.922074 274.962963 309.731556 274.962963z" fill="#635FF1" opacity=".1" /><path d="M208.592593 232.296296a75.851852 75.851852 0 0 0-75.851852 75.851852v493.037037a75.851852 75.851852 0 0 0 75.851852 75.851852h606.814814a75.851852 75.851852 0 0 0 75.851852-75.851852v-493.037037a75.851852 75.851852 0 0 0-75.851852-75.851852H208.592593z m0-75.851852h606.814814c83.787852 0 151.703704 67.915852 151.703704 151.703704v493.037037c0 83.787852-67.915852 151.703704-151.703704 151.703704H208.592593c-83.787852 0-151.703704-67.915852-151.703704-151.703704v-493.037037c0-83.787852 67.915852-151.703704 151.703704-151.703704z" fill="#635FF1" /><path d="M312.888889 715.851852a56.888889 56.888889 0 1 1 0-113.777778 56.888889 56.888889 0 0 1 0 113.777778zM512 715.851852a56.888889 56.888889 0 1 1 0-113.777778 56.888889 56.888889 0 0 1 0 113.777778zM711.111111 715.851852a56.888889 56.888889 0 1 1 0-113.777778 56.888889 56.888889 0 0 1 0 113.777778zM512 497.777778a56.888889 56.888889 0 1 1 0-113.777778 56.888889 56.888889 0 0 1 0 113.777778zM711.111111 497.777778a56.888889 56.888889 0 1 1 0-113.777778 56.888889 56.888889 0 0 1 0 113.777778z" fill="#6160F4" /></svg>