<svg height="512pt" viewBox="0 0 512 512" width="512pt" xmlns="http://www.w3.org/2000/svg" xmlns:xlink="http://www.w3.org/1999/xlink"><linearGradient id="a" gradientUnits="userSpaceOnUse" x1="0" x2="512" y1="256" y2="256"><stop offset="0" stop-color="#00f1ff"/><stop offset=".231" stop-color="#00d8ff"/><stop offset=".5138" stop-color="#00c0ff"/><stop offset=".7773" stop-color="#00b2ff"/><stop offset="1" stop-color="#00adff"/></linearGradient><path d="m512 256c0 141.386719-114.613281 256-256 256s-256-114.613281-256-256 114.613281-256 256-256 256 114.613281 256 256zm0 0" fill="url(#a)"/><g fill="#fff"><path d="m179.449219 261.988281c0 8.28125 6.714843 15 15 15h67.585937c8.28125 0 15-6.71875 15-15v-96.546875c0-8.285156-6.71875-15-15-15-8.285156 0-15 6.714844-15 15v81.546875h-52.585937c-8.285157 0-15 6.714844-15 15zm0 0"/><path d="m407.140625 295.617188c-6.738281-4.824219-16.105469-3.269532-20.929687 3.464843l-59.398438 82.972657c-.867188.953124-1.90625 1.214843-2.648438 1.265624-.78125.050782-1.925781-.089843-2.953124-1.042968l-38.417969-37.492188c-5.929688-5.789062-15.429688-5.671875-21.214844.257813-5.785156 5.929687-5.667969 15.425781.261719 21.214843l38.511718 37.582032c.042969.042968.089844.085937.132813.128906 6.320313 6.015625 14.753906 9.359375 23.433594 9.359375.746093 0 1.492187-.023437 2.242187-.074219 9.453125-.628906 18.277344-5.226562 24.214844-12.609375.171875-.21875.339844-.441406.503906-.667969l59.726563-83.429687c4.820312-6.734375 3.269531-16.105469-3.464844-20.929687zm0 0"/><path d="m253.300781 383.335938c-68.765625-1.425782-124.710937-58.570313-124.710937-127.382813 0-29.117187 9.996094-57.144531 27.929687-79.578125v16.820312c0 8.285157 6.714844 15 15 15 8.285157 0 15-6.714843 15-15v-27.753906c0-21.582031-17.558593-39.140625-39.136719-39.140625h-27.757812c-8.285156 0-15 6.71875-15 15 0 8.285157 6.714844 15 15 15h14.539062c-22.832031 27.929688-35.574218 63.097657-35.574218 99.652344 0 41.46875 15.984375 80.605469 45.015625 110.207031 28.988281 29.558594 67.722656 46.3125 109.070312 47.167969.105469 0 .210938.003906.316407.003906 8.140624 0 14.820312-6.515625 14.992187-14.691406.171875-8.28125-6.402344-15.132813-14.683594-15.304687zm0 0"/><path d="m261.410156 128.65625c68.410156 2.851562 122 58.769531 122 127.296875 0 1.808594-.039062 3.628906-.113281 5.414063-.347656 8.277343 6.082031 15.269531 14.359375 15.613281.210938.011719.425781.015625.636719.015625 7.996093 0 14.640625-6.3125 14.976562-14.375.09375-2.199219.140625-4.445313.140625-6.667969 0-40.882813-15.601562-79.625-43.929687-109.089844-28.246094-29.375-66.183594-46.484375-106.820313-48.179687-8.3125-.359375-15.265625 6.085937-15.613281 14.363281-.34375 8.273437 6.085937 15.265625 14.363281 15.609375zm0 0"/></g></svg>