<?xml version="1.0" standalone="no"?><!DOCTYPE svg PUBLIC "-//W3C//DTD SVG 1.1//EN" "http://www.w3.org/Graphics/SVG/1.1/DTD/svg11.dtd"><svg class="icon" width="64px" height="64.00px" viewBox="0 0 1024 1024" version="1.1" xmlns="http://www.w3.org/2000/svg"><path d="M597.333333 1005.037037c-230.4 0-417.185185-186.785185-417.185185-417.185185s186.785185-417.185185 417.185185-417.185185 417.185185 186.785185 417.185186 417.185185-186.785185 417.185185-417.185186 417.185185z" fill="#6160F4" opacity=".09" /><path d="M505.040593 957.62963c-251.354074 0-455.111111-203.757037-455.111112-455.111111s203.757037-455.111111 455.111112-455.111112 455.111111 203.757037 455.111111 455.111112-203.757037 455.111111-455.111111 455.111111z m0-75.851852c209.455407 0 379.259259-169.803852 379.259259-379.259259s-169.803852-379.259259-379.259259-379.25926-379.259259 169.803852-379.25926 379.25926 169.803852 379.259259 379.25926 379.259259z" fill="#6160F4" /><path d="M541.895111 237.037037a37.925926 37.925926 0 0 0-37.878518 36.02963l-0.047408 1.896296v197.025185l-243.873185 67.821037a37.925926 37.925926 0 0 0-26.851556 44.8l0.474075 1.896296a37.925926 37.925926 0 0 0 44.8 26.851556l1.896296-0.474074 271.644444-75.529482a37.925926 37.925926 0 0 0 27.714371-34.588444l0.047407-1.953185V274.962963a37.925926 37.925926 0 0 0-37.925926-37.925926z" fill="#6160F4" /></svg>