<?xml version="1.0" standalone="no"?><!DOCTYPE svg PUBLIC "-//W3C//DTD SVG 1.1//EN" "http://www.w3.org/Graphics/SVG/1.1/DTD/svg11.dtd"><svg class="icon" width="64px" height="64.00px" viewBox="0 0 1024 1024" version="1.1" xmlns="http://www.w3.org/2000/svg"><path d="M587.851852 1014.518519c-230.4 0-417.185185-186.785185-417.185185-417.185186s186.785185-417.185185 417.185185-417.185185 417.185185 186.785185 417.185185 417.185185-186.785185 417.185185-417.185185 417.185186z" fill="#6160F4" opacity=".09" /><path d="M502.518519 976.592593C251.164444 976.592593 47.407407 772.835556 47.407407 521.481481S251.164444 66.37037 502.518519 66.37037s455.111111 203.757037 455.111111 455.111111-203.757037 455.111111-455.111111 455.111112z m0-75.851852c209.455407 0 379.259259-169.803852 379.259259-379.25926S711.973926 142.222222 502.518519 142.222222 123.259259 312.026074 123.259259 521.481481s169.803852 379.259259 379.25926 379.25926z" fill="#6160F4" /><path d="M735.715556 270.933333a37.925926 37.925926 0 0 0-35.489186-0.218074l-281.125926 146.593185a37.925926 37.925926 0 0 0-16.090074 16.090075L256.417185 714.524444a37.925926 37.925926 0 0 0 51.579259 50.944l278.20563-149.522963a37.925926 37.925926 0 0 0 15.454815-15.454814l149.513481-278.186667a37.925926 37.925926 0 0 0-15.454814-51.370667zM626.005333 394.960593l-85.76 159.573333-159.573333 85.76 84.081778-161.242074 161.251555-84.091259z" fill="#6160F4" /></svg>