<?xml version="1.0" standalone="no"?><!DOCTYPE svg PUBLIC "-//W3C//DTD SVG 1.1//EN" "http://www.w3.org/Graphics/SVG/1.1/DTD/svg11.dtd"><svg class="icon" width="64px" height="64.00px" viewBox="0 0 1024 1024" version="1.1" xmlns="http://www.w3.org/2000/svg"><path d="M113.777778 208.592593m104.296296 0l701.62963 0q104.296296 0 104.296296 104.296296l0 597.333333q0 104.296296-104.296296 104.296297l-701.62963 0q-104.296296 0-104.296296-104.296297l0-597.333333q0-104.296296 104.296296-104.296296Z" fill="#6160F4" fill-opacity=".1" /><path d="M170.666667 180.148148a75.851852 75.851852 0 0 0-75.851852 75.851852v512a75.851852 75.851852 0 0 0 75.851852 75.851852h663.703703a75.851852 75.851852 0 0 0 75.851852-75.851852V256a75.851852 75.851852 0 0 0-75.851852-75.851852H170.666667z m0-75.851852h663.703703c83.787852 0 151.703704 67.915852 151.703704 151.703704v512c0 83.787852-67.915852 151.703704-151.703704 151.703704H170.666667C86.878815 919.703704 18.962963 851.787852 18.962963 768V256C18.962963 172.212148 86.878815 104.296296 170.666667 104.296296z" fill="#625FF4" /><path d="M75.851852 369.777778V274.962963h910.222222v94.814815z" fill="#635FF1" /><path d="M678.646519 749.037037C649.509926 749.037037 625.777778 727.864889 625.777778 701.62963s23.732148-47.407407 52.868741-47.407408h150.262518C858.04563 654.222222 881.777778 675.39437 881.777778 701.62963s-23.732148 47.407407-52.868741 47.407407H678.646519z" fill="#6160F4" /></svg>