<svg id="Capa_1" enable-background="new 0 0 512 512" height="512" viewBox="0 0 512 512" width="512" xmlns="http://www.w3.org/2000/svg"><g><g><g><path d="m512 256c0 141.38-114.62 256-256 256-10.07 0-20-.58-29.76-1.71-7.5-14.08-23.68-21.19-39.13-17.18l-16.53 4.28c-55.12-19.5-101.57-57.35-132.02-106.21l.16-12.51c.23-17.87-9.81-34.29-25.82-42.22-8.37-25.3-12.9-52.35-12.9-80.45 0-46.21 12.25-89.56 33.68-126.99 44.11-77.07 127.15-129.01 222.32-129.01s178.21 51.94 222.32 129.01c21.43 37.43 33.68 80.78 33.68 126.99z" fill="#f978ad"/><path d="m512 256c0 141.38-114.62 256-256 256-10.07 0-20-.58-29.76-1.71-7.5-14.08-23.68-21.19-39.13-17.18l-16.53 4.28c-55.12-19.5-101.57-57.35-132.02-106.21l.16-12.51c.23-17.87-9.81-34.29-25.82-42.22-8.37-25.3-12.9-52.35-12.9-80.45 0-46.21 12.25-89.56 33.68-126.99 19.11 33.38 45.52 62.05 77.06 83.81 13.05 9.01 26.97 16.85 41.63 23.34 24.91 11.05 51.93 18.23 80.27 20.79 7.69.7 15.48 1.06 23.36 1.06 95.16 0 178.2-51.93 222.32-129 21.43 37.43 33.68 80.78 33.68 126.99z" fill="#ff5b97"/></g></g><g><g><g><path d="m452.252 284.282-193.858 193.858c-7.578-.148-14.43-3.277-19.427-8.275-1.528-1.528-2.877-3.233-4.026-5.079-2.484-3.982-4.004-8.631-4.227-13.629l-.03-.727c7.904-6.169 10.663-17.01 6.384-26.079-8.52-18.041-5.331-40.241 9.588-55.16l91.034-91.034c26.902-26.902 67.306-32.085 99.413-15.534 5.057 2.595 9.906 5.739 14.467 9.425 3.811 3.069 4.145 8.771.682 12.234z" fill="#f0f5ff"/><path d="m452.252 284.282-193.858 193.858c-7.578-.148-14.43-3.277-19.427-8.275-1.528-1.528-2.877-3.233-4.026-5.079l202.163-202.163c5.057 2.595 9.906 5.739 14.467 9.425 3.81 3.069 4.144 8.771.681 12.234z" fill="#d9e3fc"/><path d="m258.39 478.14-32.15 32.15c-19.29-2.24-37.92-6.61-55.66-12.9l60.1-46.96z" fill="#d9e3fc"/><path d="m258.39 478.14-32.15 32.15c-10.61-1.23-21.03-3.11-31.2-5.6l44.95-44.95z" fill="#c5d7fc"/><path d="m452.252 284.282-22.215 22.215c-8.824-4.805-18.419-7.682-28.17-8.639-21.311-2.076-43.341 5.035-59.654 21.348l-105.145 105.145c-8.52-18.041-5.331-40.241 9.588-55.16l91.034-91.034c26.902-26.902 67.306-32.085 99.413-15.534 5.057 2.595 9.906 5.739 14.467 9.425 3.811 3.069 4.145 8.771.682 12.234z" fill="#d9e3fc"/><path d="m452.252 284.282-22.215 22.215c-8.824-4.805-18.419-7.682-28.17-8.639l35.236-35.236c5.057 2.595 9.906 5.739 14.467 9.425 3.811 3.07 4.145 8.772.682 12.235z" fill="#c5d7fc"/></g><g><path d="m319.6 164.08c0 3.66-1.39 7.31-4.18 10.1l-82.78 82.77-.36.36c-16.66 16.66-39.49 23.37-61.13 20.14-18.62-2.78-37.37 4.19-49.72 18.4l-9.9 11.38-72.97 83.95c-10.59-17.01-19.25-35.36-25.66-54.73l68.4-59.45 11.52-10.02c14.1-12.27 21.2-30.85 18.46-49.33-.24-1.6-.42-3.22-.54-4.83-1.65-20.45 5.43-41.52 21.03-57.12l82.58-82.59c5.52-5.51 14.42-5.57 20.02-.19 5.77 5.56 5.63 14.97-.03 20.63l-72.8 72.8c-5.52 5.52-5.58 14.42-.19 20.02 5.55 5.77 14.96 5.63 20.62-.03l72.81-72.8c5.51-5.52 14.41-5.58 20.01-.2l.2.2c5.57 5.59 5.37 14.84-.23 20.44l-72.8 72.8c-2.79 2.79-4.19 6.45-4.19 10.1 0 3.66 1.4 7.32 4.19 10.11 5.58 5.58 14.63 5.58 20.21 0l73.03-73.03c5.58-5.58 14.63-5.58 20.21 0 2.79 2.8 4.19 6.46 4.19 10.12z" fill="#f0f5ff"/><path d="m319.6 164.08c0 3.66-1.39 7.31-4.18 10.1l-82.78 82.77-.36.36c-16.66 16.66-39.49 23.37-61.13 20.14-18.62-2.78-37.37 4.19-49.72 18.4l-82.87 95.33c-5.34-8.58-10.19-17.49-14.5-26.71l250.93-250.93c5.57 5.59 5.37 14.84-.23 20.44l-72.8 72.8c-2.79 2.79-4.19 6.45-4.19 10.1 0 3.66 1.4 7.32 4.19 10.11 5.58 5.58 14.63 5.58 20.21 0l73.03-73.03c5.58-5.58 14.63-5.58 20.21 0 2.79 2.8 4.19 6.46 4.19 10.12z" fill="#d9e3fc"/><path d="m111.53 307.23-72.97 83.95c-10.59-17.01-19.25-35.36-25.66-54.73l68.4-59.45z" fill="#d9e3fc"/><path d="m111.53 307.23-72.97 83.95c-5.34-8.58-10.19-17.49-14.5-26.71l72.35-72.35z" fill="#c5d7fc"/></g></g><g><path d="m445.256 188.902c-7.433 4.36-14.572 9.195-21.296 14.532-6.724 5.338-13.032 11.19-18.798 17.593-.395.429-.931.65-1.467.65s-1.072-.221-1.467-.65c-11.539-12.811-25.227-23.399-40.094-32.125-9.014-5.29-14.941-15.275-14.425-26.6.69-14.968 12.845-27.116 27.812-27.806 12.577-.576 23.506 6.811 28.174 17.539 4.674-10.729 15.597-18.115 28.174-17.539 14.968.69 27.122 12.838 27.812 27.806.523 11.325-5.41 21.316-14.425 26.6z" fill="#f7287c"/><path d="m445.256 188.902c-7.433 4.36-14.572 9.195-21.296 14.532-6.724 5.338-13.032 11.19-18.798 17.593-.395.429-.931.65-1.467.65v-69.641c4.674-10.729 15.597-18.115 28.174-17.539 14.968.69 27.122 12.838 27.812 27.806.523 11.324-5.41 21.315-14.425 26.599z" fill="#de1263"/></g></g></g></svg>