<?xml version="1.0" standalone="no"?><!DOCTYPE svg PUBLIC "-//W3C//DTD SVG 1.1//EN" "http://www.w3.org/Graphics/SVG/1.1/DTD/svg11.dtd"><svg class="icon" width="64px" height="64.00px" viewBox="0 0 1024 1024" version="1.1" xmlns="http://www.w3.org/2000/svg"><path d="M708.740741 132.740741C783.36 132.740741 843.851852 190.78637 843.851852 262.390519L843.84237 284.444444h7.300741C930.901333 284.444444 995.555556 349.098667 995.555556 428.847407v85.18163a113.777778 113.777778 0 0 1-48.516741 93.202963l-5.186371 3.631407V843.851852c0 83.787852-67.915852 151.703704-151.703703 151.703704H357.110519c-83.787852 0-151.703704-67.915852-151.703704-151.703704V606.596741A113.635556 113.635556 0 0 1 151.703704 510.056296v-81.199407C151.703704 349.098667 216.357926 284.444444 296.106667 284.444444H303.407407v-22.053925C303.407407 190.78637 363.899259 132.740741 438.518519 132.740741c73.481481 0 133.271704 56.301037 135.073185 126.397629l0.028444 2.882371 0.037926-2.522074C575.269926 189.231407 635.126519 132.740741 708.740741 132.740741z" fill="#6160F4" fill-opacity=".1" /><path d="M483.555556 208.592593h-63.554371v-35.242667c0-45.416296-37.338074-82.24237-83.408592-82.24237s-83.408593 36.816593-83.408593 82.24237V208.592593H189.62963v-35.242667C189.62963 93.326222 255.431111 28.444444 336.592593 28.444444 417.754074 28.444444 483.555556 93.316741 483.555556 173.349926V208.592593zM777.481481 208.592593h-63.55437v-35.242667c0-45.416296-37.338074-82.24237-83.408592-82.24237s-83.408593 36.816593-83.408593 82.24237V208.592593H483.555556v-35.242667C483.555556 93.326222 549.357037 28.444444 630.518519 28.444444 711.68 28.444444 777.481481 93.316741 777.481481 173.349926V208.592593z" fill="#6160F4" /><path d="M786.962963 189.62963c83.787852 0 151.703704 67.915852 151.703704 151.703703v104.950519a113.777778 113.777778 0 0 1-48.384 93.108148l-10.145186 7.120593V815.407407c0 83.787852-67.915852 151.703704-151.703703 151.703704H229.195852c-83.787852 0-151.703704-67.915852-151.703704-151.703704V541.857185l-4.892444-3.053037A113.777778 113.777778 0 0 1 18.962963 442.225778V341.333333c0-83.787852 67.915852-151.703704 151.703704-151.703703h616.296296z m0 75.851851H170.666667a75.851852 75.851852 0 0 0-75.813926 73.481482L94.814815 341.333333v100.882963a37.925926 37.925926 0 0 0 16.061629 31.004445l1.820445 1.194666 4.892444 3.053037a75.851852 75.851852 0 0 1 35.70726 61.677037l0.047407 2.711704V815.407407a75.851852 75.851852 0 0 0 73.481481 75.813926l2.370371 0.037926h499.237926a75.851852 75.851852 0 0 0 75.813926-73.481481l0.037926-2.370371V546.512593a75.851852 75.851852 0 0 1 30.046814-60.453926l2.209186-1.611852 10.145185-7.130074a37.925926 37.925926 0 0 0 16.061629-28.86163l0.066371-2.180741V341.333333a75.851852 75.851852 0 0 0-73.481482-75.813926L786.962963 265.481481z" fill="#635FF1" /><path d="M237.037037 455.111111m37.925926 0l417.185185 0q37.925926 0 37.925926 37.925926l0 0q0 37.925926-37.925926 37.925926l-417.185185 0q-37.925926 0-37.925926-37.925926l0 0q0-37.925926 37.925926-37.925926Z" fill="#635FF1" /></svg>