<svg xmlns="http://www.w3.org/2000/svg" width="512" height="512" x="0" y="0" viewBox="0 0 512 512"
     style="enable-background:new 0 0 512 512" xml:space="preserve" class=""><g><g><g><g><g><g><g><g><g><path d="m113.278 468.556c-68.327-45.97-113.278-124.013-113.278-212.556 0-141.385 114.615-256 256-256s256 114.615 256 256c0 88.543-44.951 166.586-113.278 212.556z" fill="#4a7aff" data-original="#4a7aff" class=""></path></g></g></g></g></g></g></g><path
  d="m223.438 468.555h175.284c68.327-45.969 113.278-124.012 113.278-212.555 0-18.198-1.899-35.953-5.509-53.076l-103.975-103.975z"
  fill="#0053bf" data-original="#0053bf"></path><g><path d="m324.368 502.769c26.807-7.411 51.848-19.072 74.354-34.214l-45.741-169.252h-193.962l-45.741 169.252c22.506 15.141 47.547 26.803 74.354 34.214z" fill="#e9edf5" data-original="#e9edf5"></path></g><g><path d="m398.722 468.555-45.741-169.252h-97.337v203.466h68.724c26.807-7.411 51.849-19.072 74.354-34.214z" fill="#cdd2e1" data-original="#cdd2e1"></path></g><g><path d="m210.252 127.473-100.768-28.523 25.51 96.939z" fill="#e9edf5" data-original="#e9edf5"></path></g><g><path d="m185.701 139.963-47.586-13.47 12.047 45.778z" fill="#bec3d2" data-original="#bec3d2"></path></g><g><path d="m301.748 127.473 100.768-28.523-25.51 96.939z" fill="#cdd2e1" data-original="#cdd2e1"></path></g><g><path d="m326.299 139.963 47.586-13.47-12.047 45.778z" fill="#9196aa" data-original="#9196aa"></path></g><g><path d="m387.294 237.265c0 72.512-58.782 100.67-131.294 100.67s-131.294-28.158-131.294-100.67 58.782-131.294 131.294-131.294 131.294 58.782 131.294 131.294z" fill="#ffffff" data-original="#ffffff" class=""></path></g><g><path d="m256 105.971c-.119 0-.237.004-.356.005v231.957c.119 0 .237.002.356.002 72.512 0 131.294-28.158 131.294-100.67s-58.782-131.294-131.294-131.294z" fill="#e9edf5" data-original="#e9edf5"></path></g><g><g><circle cx="189.562" cy="214.025" fill="#636978" r="14.764" data-original="#636978"></circle></g>
  <g><circle cx="322.438" cy="214.025" fill="#414952" r="14.764" data-original="#414952"></circle></g></g><path
  d="m277.017 236.853c0-9.988-9.409-12.464-21.017-12.464s-21.017 2.476-21.017 12.464c0 5.155 5.599 9.806 11.017 13.1v39.764h20v-39.764c5.418-3.294 11.017-7.945 11.017-13.1z"
  fill="#636978" data-original="#636978"></path><path
  d="m277.017 236.853c0-9.988-9.409-12.464-21.017-12.464-.12 0-.236.005-.356.005v65.322h10.356v-39.764c5.418-3.293 11.017-7.944 11.017-13.099z"
  fill="#414952" data-original="#414952"></path><g><path d="m256 356.178c-37.759 0-68.368 30.61-68.368 68.368v78.222c21.763 6.017 44.69 9.232 68.368 9.232s46.605-3.215 68.368-9.231v-78.222c0-37.759-30.609-68.369-68.368-68.369z" fill="#ffffff" data-original="#ffffff" class=""></path></g><g><path d="m256 356.178c-.12 0-.237.008-.356.009v155.81c.119 0 .237.003.356.003 23.678 0 46.605-3.215 68.368-9.231v-78.222c0-37.759-30.609-68.369-68.368-68.369z" fill="#e9edf5" data-original="#e9edf5"></path></g></g></g></svg>
