<?xml version="1.0" standalone="no"?><!DOCTYPE svg PUBLIC "-//W3C//DTD SVG 1.1//EN" "http://www.w3.org/Graphics/SVG/1.1/DTD/svg11.dtd"><svg t="1599901771576" class="icon" viewBox="0 0 1024 1024" version="1.1" xmlns="http://www.w3.org/2000/svg" p-id="1375" xmlns:xlink="http://www.w3.org/1999/xlink" width="64" height="64"><defs><style type="text/css"></style></defs><path d="M509.44 492.47744c-243.712 0-427.52-91.55584-427.52-212.96128S265.728 66.56 509.44 66.56 936.96 158.1056 936.96 279.51616s-183.808 212.96128-427.52 212.96128z m0-356.94592c-211.38944 0-358.70208 75.88352-358.70208 143.98464S298.05056 423.50592 509.44 423.50592s358.70208-75.88864 358.70208-143.98976S720.82944 135.53152 509.44 135.53152z m0 585.04192c-243.712 0-427.52-91.55584-427.52-212.96128a34.4064 34.4064 0 1 1 68.81792 0c0 68.096 147.31264 143.98976 358.70208 143.98976s358.70208-75.88864 358.70208-143.98976a34.41152 34.41152 0 1 1 68.81792 0c0 121.40544-183.808 212.96128-427.52 212.96128z m0 236.86656C265.728 957.44 81.92 865.88416 81.92 744.47872a34.4064 34.4064 0 1 1 68.81792 0c0 68.096 147.31264 143.98976 358.70208 143.98976s358.70208-75.88864 358.70208-143.98976a34.41152 34.41152 0 1 1 68.81792 0C936.96 865.88416 753.152 957.44 509.44 957.44z" fill="#ff5000" p-id="1376"></path></svg>
