<?xml version="1.0" encoding="iso-8859-1"?>
<!-- Generator: Adobe Illustrator 19.0.0, SVG Export Plug-In . SVG Version: 6.00 Build 0)  -->
<svg version="1.1" id="Capa_1" xmlns="http://www.w3.org/2000/svg" xmlns:xlink="http://www.w3.org/1999/xlink" x="0px" y="0px"
	 viewBox="0 0 497.328 497.328" style="enable-background:new 0 0 497.328 497.328;" xml:space="preserve">
<g>
	<polygon style="fill:#FFA64D;" points="70.912,224.476 37.32,168.476 70.912,112.476 123.744,112.476 157.336,168.476 
		123.744,224.476 	"/>
	<polygon style="fill:#FFA64D;" points="198.912,304.476 165.32,248.476 198.912,192.476 251.744,192.476 285.336,248.476 
		251.744,304.476 	"/>
	<polygon style="fill:#FFA64D;" points="326.912,384.476 293.32,328.476 326.912,272.476 379.744,272.476 413.336,328.476 
		379.744,384.476 	"/>
	<polygon style="fill:#FFA64D;" points="70.912,384.476 37.32,328.476 70.912,272.476 123.744,272.476 157.336,328.476 
		123.744,384.476 	"/>
	<polygon style="fill:#FFA64D;" points="198.912,464.476 165.32,408.476 198.912,352.476 251.744,352.476 285.336,408.476 
		251.744,464.476 	"/>
</g>
<g>
	<polygon style="fill:#333333;" points="119.208,128.476 119.208,112.476 70.912,112.476 39.792,164.356 53.512,172.596 
		79.976,128.476 	"/>
	<polygon style="fill:#333333;" points="269.144,252.596 282.864,244.356 251.744,192.476 203.448,192.476 203.448,208.476 
		242.68,208.476 	"/>
	<path style="fill:#333333;" d="M317.856,240.476l-48-80h-80l-48-80H52.8l-52.8,88l48,80l-48,80l52.8,88h80l48,80h89.064l48-80h80
		l52.8-88l-52.8-88H317.856z M304,248.476l-21.6,36l-21.6,36h-70.936l-21.6-36l-21.6-36l21.6-36l21.6-36H260.8L304,248.476z
		 M61.856,96.476h70.936l43.2,72l-21.6,36l-21.6,36H61.856l-43.2-72L61.856,96.476z M18.656,328.476l43.2-72h70.936l21.6,36l21.6,36
		l-21.6,36l-21.6,36H61.856L18.656,328.476z M260.8,480.476h-70.936l-43.2-72l21.6-36l21.6-36H260.8l21.6,36l21.6,36L260.8,480.476z
		 M388.8,400.476h-70.936l-21.6-36l-21.6-36l21.6-36l21.6-36H388.8l43.2,72L388.8,400.476z"/>
	<polygon style="fill:#333333;" points="311.976,328.476 338.304,284.596 324.584,276.356 293.32,328.476 326.912,384.476 
		377.328,384.476 377.328,368.476 335.976,368.476 	"/>
	<polygon style="fill:#333333;" points="53.512,324.356 39.792,332.596 70.912,384.476 119.208,384.476 119.208,368.476 
		79.976,368.476 	"/>
	<rect x="233.328" y="352.476" style="fill:#333333;" width="16" height="16"/>
	<polygon style="fill:#333333;" points="165.32,408.476 196.584,460.596 210.304,452.356 183.976,408.476 207.976,368.476 
		217.328,368.476 217.328,352.476 198.912,352.476 	"/>
	<path style="fill:#333333;" d="M470.744,102.444c-16.136-15.384-34.928-24.104-50.848-25.016c1.832-3.968,2.896-8.336,2.896-12.952
		c0-6.856-2.288-13.176-6.104-18.384l1.712-3.272c6.672-12.712,18.168-22.2,32.376-26.72l-4.848-15.248
		c-18.248,5.808-33.064,18.072-41.704,34.536l-0.208,0.392c-4.368-2.048-9.216-3.304-14.4-3.304s-10.032,1.256-14.4,3.304
		l-0.208-0.392c-8.632-16.472-23.44-28.736-41.696-34.536l-4.84,15.248c14.208,4.52,25.704,14.008,32.368,26.72l1.72,3.272
		c-3.816,5.208-6.104,11.528-6.104,18.384c0,4.976,1.28,9.624,3.392,13.832c-14.272,2.664-30.064,10.928-43.928,24.144
		c-16.656,15.856-26.592,35.16-26.592,51.6c0,9.04,3.04,16.712,8.792,22.192c5.8,5.52,13.72,8.168,22.72,8.168
		c6.808,0,14.24-1.6,21.816-4.528c6.968,31.424,25.392,52.592,46.96,52.592c22.264,0,41.176-22.768,47.592-55.584
		c9.888,4.888,19.768,7.52,28.608,7.52c9,0,16.92-2.64,22.72-8.168c5.752-5.48,8.792-13.152,8.792-22.192
		C497.328,137.612,487.392,118.308,470.744,102.444z M393.328,134.772c1.832,3.432,4,6.84,6.432,10.2
		c-4.208-0.288-8.408-0.384-12.648-0.312C389.448,141.404,391.552,138.1,393.328,134.772z M406.792,64.476
		c0,8.816-7.704,16-17.176,16c-9.464,0-17.16-7.184-17.16-16c0-8.824,7.704-16,17.16-16
		C399.088,48.476,406.792,55.652,406.792,64.476z M309.16,164.668c-2.544-2.424-3.832-6-3.832-10.616
		c0-11.976,8.288-27.312,21.632-40.032c21.224-20.232,45.616-25.16,54.216-16.968c2.536,2.424,3.832,5.992,3.832,10.608
		c0,11.968-8.288,27.312-21.632,40.04C342.16,167.948,317.76,172.884,309.16,164.668z M389.616,216.476
		c-9.504,0-18.632-8.344-25.016-21.48c15.736-3.184,34.256-3.2,49.992-0.016C408.224,208.076,399.152,216.476,389.616,216.476z
		 M420.144,179.852c-19.128-4.288-41.928-4.312-61.056-0.048c-0.632-2.392-1.208-4.84-1.664-7.384
		c4.832-3.008,9.576-6.56,14.16-10.64c14.872-2.104,31.536-1.464,45.488,1.768c1.792,1.52,3.608,2.944,5.448,4.304
		C421.944,172.012,421.152,176.036,420.144,179.852z M477.496,164.668c-8.584,8.208-32.984,3.272-54.208-16.968
		c-13.344-12.728-21.632-28.072-21.632-40.04c0-4.616,1.288-8.184,3.832-10.608c2.616-2.496,6.704-3.784,11.72-3.784
		c11.448,0,27.736,6.68,42.496,20.752c13.336,12.72,21.624,28.056,21.624,40.032C481.328,158.668,480.04,162.244,477.496,164.668z"
		/>
</g>
<g>
</g>
<g>
</g>
<g>
</g>
<g>
</g>
<g>
</g>
<g>
</g>
<g>
</g>
<g>
</g>
<g>
</g>
<g>
</g>
<g>
</g>
<g>
</g>
<g>
</g>
<g>
</g>
<g>
</g>
</svg>
