<svg id="Capa_1" enable-background="new 0 0 512 512" height="512" viewBox="0 0 512 512" width="512" xmlns="http://www.w3.org/2000/svg"><g><g><g><g><g><g><circle cx="256" cy="256" fill="#ff73a5" r="256"/></g></g></g></g></g><path d="m318.263 504.375c110.278-27.556 192.229-126.632 193.717-245.094l-174.163-174.161-50.808 71.363-87.602-87.603 41.756 166.08-151.043 41.273z" fill="#f93d8a"/><g><circle cx="256" cy="185.168" fill="#ffde52" r="63.529"/></g><g><path d="m256 121.639c35.086 0 63.529 28.443 63.529 63.529s-28.443 63.53-63.529 63.53z" fill="#ffce00"/></g><g><path d="m290.643 373.692c-.452-10.083 4.835-21.601 11.855-28.622 7.184-7.184 17.935-11.818 28.113-12.005 10.345-18.792 17.37-36.777 17.37-50.968 0-50.8-41.182-91.981-91.982-91.981s-91.982 41.182-91.982 91.981c0 14.361 7.05 31.935 17.595 50.968 21.857.869 38.184 19.879 39.143 41.278.205 4.569-.457 9.991-2.237 14.598 19.965 26.382 37.482 45.519 37.482 45.519s17.409-19.123 37.381-45.518c-1.84-4.573-2.507-10.11-2.738-15.25z" fill="#ffce00"/></g><g><path d="m256 190.117c50.8 0 91.982 41.182 91.982 91.982s-91.982 152.361-91.982 152.361z" fill="#fdba12"/></g><g><path d="m164.018 282.098c0 5.251.983 11.044 2.745 17.212h178.473c1.762-6.168 2.745-11.961 2.745-17.212 0-14.022-3.138-27.311-8.749-39.204h-166.464c-5.612 11.893-8.75 25.182-8.75 39.204z" fill="#555a66"/></g><g><path d="m347.982 282.099c0-14.022-3.138-27.312-8.749-39.204h-83.233v56.416h89.236c1.763-6.168 2.746-11.961 2.746-17.212z" fill="#333940"/></g><g><path d="m218.519 388.942h74.862c12.985-17.105 26.647-36.572 37.231-55.876h-148.999c10.584 19.304 23.921 38.771 36.906 55.876z" fill="#555a66"/></g><g><path d="m330.612 333.066h-74.612v55.876h37.381c12.985-17.105 26.647-36.572 37.231-55.876z" fill="#333940"/></g><g><g><g><path d="m271.477 211.327c0 .081-.003.161-.003.241 0 49.211 39.894 89.105 89.105 89.105 49.212 0 89.106-39.894 89.106-89.105 0-.081-.003-.161-.003-.241z" fill="#e9edf5"/></g></g><g><g><path d="m62.319 211.327c0 .081-.003.161-.003.241 0 49.211 39.894 89.105 89.105 89.105 49.212 0 89.106-39.894 89.106-89.105 0-.081-.003-.161-.003-.241z" fill="#fff"/></g></g></g><g><path d="m195.252 70.102h30v86.669h-30z" fill="#555a66" transform="matrix(.841 -.541 .541 .841 -27.938 131.865)"/></g><g><path d="m258.413 98.437h86.669v30h-86.669z" fill="#333940" transform="matrix(.541 -.841 .841 .541 43.028 305.749)"/></g></g></svg>