<?xml version="1.0" standalone="no"?><!DOCTYPE svg PUBLIC "-//W3C//DTD SVG 1.1//EN" "http://www.w3.org/Graphics/SVG/1.1/DTD/svg11.dtd"><svg class="icon" width="64px" height="64.00px" viewBox="0 0 1024 1024" version="1.1" xmlns="http://www.w3.org/2000/svg"><path d="M142.222222 218.074074m104.296297 0l673.185185 0q104.296296 0 104.296296 104.296296l0 521.481482q0 104.296296-104.296296 104.296296l-673.185185 0q-104.296296 0-104.296297-104.296296l0-521.481482q0-104.296296 104.296297-104.296296Z" fill="#6160F4" fill-opacity=".1" /><path d="M151.703704 142.222222a75.851852 75.851852 0 0 0-75.851852 75.851852v512a75.851852 75.851852 0 0 0 75.851852 75.851852h663.703703a75.851852 75.851852 0 0 0 75.851852-75.851852V218.074074a75.851852 75.851852 0 0 0-75.851852-75.851852H151.703704z m0-75.851852h663.703703c83.787852 0 151.703704 67.915852 151.703704 151.703704v512c0 83.787852-67.915852 151.703704-151.703704 151.703704H151.703704C67.915852 881.777778 0 813.861926 0 730.074074V218.074074C0 134.286222 67.915852 66.37037 151.703704 66.37037z" fill="#635FF1" /><path d="M821.485037 170.666667L590.772148 401.246815c-59.211852 59.173926-155.211852 59.173926-214.433185 0L145.635556 170.666667h107.216592l177.095111 177.000296a75.851852 75.851852 0 0 0 107.216593 0L714.249481 170.666667h107.235556z" fill="#6160F4" /></svg>