<?xml version="1.0" standalone="no"?><!DOCTYPE svg PUBLIC "-//W3C//DTD SVG 1.1//EN" "http://www.w3.org/Graphics/SVG/1.1/DTD/svg11.dtd"><svg class="icon" width="64px" height="64.00px" viewBox="0 0 1024 1024" version="1.1" xmlns="http://www.w3.org/2000/svg"><path d="M611.555556 573.62963m-402.962963 0a402.962963 402.962963 0 1 0 805.925926 0 402.962963 402.962963 0 1 0-805.925926 0Z" fill="#6160F4" fill-opacity=".1" /><path d="M161.185185 872.296296l294.352593-0.028444 4.314074 0.028444C666.69037 872.296296 834.37037 704.616296 834.37037 497.777778S666.69037 123.259259 459.851852 123.259259 85.333333 290.939259 85.333333 497.777778v299.738074A75.851852 75.851852 0 0 0 161.185185 872.296296zM9.481481 502.300444l0.009482-2.872888L9.481481 497.777778C9.481481 249.040593 211.124148 47.407407 459.851852 47.407407 708.589037 47.407407 910.222222 249.040593 910.222222 497.777778S708.589037 948.148148 459.851852 948.148148c-1.716148 0-3.441778-0.009481-4.740741-0.028444L161.185185 948.148148C77.416296 948.148148 9.481481 880.241778 9.481481 796.453926V502.300444z" fill="#615EF7" /><path d="M287.336296 474.074074C259.602963 474.074074 237.037037 452.882963 237.037037 426.666667s22.556444-47.407407 50.299259-47.407408h326.068148C641.137778 379.259259 663.703704 400.45037 663.703704 426.666667s-22.556444 47.407407-50.29926 47.407407h-326.068148zM289.905778 663.703704C260.769185 663.703704 237.037037 642.531556 237.037037 616.296296s23.732148-47.407407 52.868741-47.407407h150.262518C469.304889 568.888889 493.037037 590.061037 493.037037 616.296296s-23.732148 47.407407-52.868741 47.407408H289.905778z" fill="#6160F4" /></svg>