<svg height="512pt" viewBox="0 0 512 512" width="512pt" xmlns="http://www.w3.org/2000/svg" xmlns:xlink="http://www.w3.org/1999/xlink"><linearGradient id="a" gradientUnits="userSpaceOnUse" x1="0" x2="512" y1="256" y2="256"><stop offset="0" stop-color="#00f1ff"/><stop offset=".231" stop-color="#00d8ff"/><stop offset=".5138" stop-color="#00c0ff"/><stop offset=".7773" stop-color="#00b2ff"/><stop offset="1" stop-color="#00adff"/></linearGradient><path d="m512 256c0 141.386719-114.613281 256-256 256s-256-114.613281-256-256 114.613281-256 256-256 256 114.613281 256 256zm0 0" fill="url(#a)"/><g fill="#fff"><path d="m409.824219 320.535156c8.285156 0 15-6.714844 15-15v-138.179687c0-29.835938-24.273438-54.109375-54.109375-54.109375h-14.980469v-11.070313c0-8.285156-6.714844-15-15-15s-15 6.714844-15 15v11.070313h-55.386719v-11.070313c0-8.285156-6.714844-15-15-15-8.28125 0-15 6.714844-15 15v11.070313h-54.730468v-11.070313c0-8.285156-6.71875-15-15-15-8.285157 0-15 6.714844-15 15v11.070313h-14.332032c-29.835937 0-54.105468 24.273437-54.105468 54.109375v203.359375c0 29.835937 24.269531 54.109375 54.105468 54.109375h229.433594c29.835938 0 54.105469-24.273438 54.105469-54.109375 0-8.28125-6.714844-15-15-15-8.285157 0-15 6.71875-15 15 0 13.292968-10.8125 24.109375-24.105469 24.109375h-229.433594c-13.292968 0-24.109375-10.816407-24.109375-24.109375v-155.769532h240.503907c8.285156 0 15-6.714843 15-15 0-8.285156-6.714844-15-15-15h-240.503907v-17.589843c0-13.292969 10.8125-24.105469 24.105469-24.105469h14.332031v11.070312c0 8.285157 6.714844 15 15 15 8.285157 0 15-6.714843 15-15v-11.070312h54.734375v11.070312c0 8.285157 6.714844 15 15 15s15-6.714843 15-15v-11.070312h55.382813v11.070312c0 8.285157 6.71875 15 15 15 8.285156 0 15-6.714843 15-15v-11.070312h14.984375c13.292968 0 24.105468 10.8125 24.105468 24.105469v138.179687c.003907 8.285156 6.71875 15 15.003907 15zm0 0"/><path d="m262.519531 372.679688c8.28125 0 15-6.714844 15-15v-106.894532c0-5.722656-3.257812-10.949218-8.398437-13.46875-5.140625-2.519531-11.269532-1.894531-15.792969 1.613282l-26.070313 20.207031c-6.546874 5.074219-7.742187 14.496093-2.667968 21.042969 5.074218 6.546874 14.496094 7.742187 21.046875 2.667968l1.882812-1.460937v76.292969c0 8.285156 6.714844 15 15 15zm0 0"/></g></svg>