<?xml version="1.0" standalone="no"?><!DOCTYPE svg PUBLIC "-//W3C//DTD SVG 1.1//EN" "http://www.w3.org/Graphics/SVG/1.1/DTD/svg11.dtd"><svg class="icon" width="64px" height="64.00px" viewBox="0 0 1024 1024" version="1.1" xmlns="http://www.w3.org/2000/svg"><path d="M915.531852 313.675852c18.014815 0 32.616296 14.620444 32.616296 32.663704a32.644741 32.644741 0 0 1-32.616296 32.654222h-23.533037a117.807407 117.807407 0 0 1 15.36 58.216296v463.255704c0 68.228741-58.415407 123.534222-130.49363 123.534222h-415.952592c-72.078222 0-130.503111-55.305481-130.503112-123.534222V437.210074c0-21.048889 5.56563-40.865185 15.369482-58.216296h-23.523556c-18.014815 0-32.625778-14.620444-32.625777-32.654222a32.644741 32.644741 0 0 1 32.616296-32.663704h195.754667v-20.404148C418.000593 209.844148 485.556148 142.222222 568.888889 142.222222s150.888296 67.621926 150.888296 151.04l-0.009481 20.41363h195.754666z" fill="#6160F4" opacity=".1" /><path d="M504.64237 536.661333v304.165926a32.123259 32.123259 0 1 1-64.246518 0V536.651852a32.123259 32.123259 0 1 1 64.246518 0zM701.402074 540.757333v304.156445a32.123259 32.123259 0 1 1-64.246518 0v-304.165926a32.123259 32.123259 0 0 1 64.246518 0z" fill="#635FF1" opacity=".1" /><path d="M672.265481 212.015407h-73.405629v-41.481481c0-53.456593-43.140741-96.786963-96.341333-96.786963-53.210074 0-96.341333 43.33037-96.341334 96.786963v41.481481h-73.405629v-41.481481C332.771556 76.35437 408.76563 0 502.518519 0c93.752889 0 169.746963 76.35437 169.746962 170.533926v41.481481z" fill="#6160F4" /><path d="M75.851852 193.583407m36.873481 0l779.586371 0q36.873481 0 36.873481 36.873482l0 0q0 36.873481-36.873481 36.873481l-779.586371 0q-36.873481 0-36.873481-36.873481l0 0q0-36.873481 36.873481-36.873482Z" fill="#635FF1" /><path d="M429.112889 446.90963v341.409185a36.702815 36.702815 0 1 1-73.40563 0V446.90963a36.702815 36.702815 0 1 1 73.40563 0zM653.918815 451.51763V792.936296a36.702815 36.702815 0 0 1-73.40563 0V451.51763a36.702815 36.702815 0 0 1 73.40563 0z" fill="#635FF1" /><path d="M268.544 267.320889c-40.542815 0-73.40563 31.288889-73.40563 69.869037v523.975111c0 38.58963 32.862815 69.859556 73.40563 69.859556h467.949037c40.542815 0 73.40563-31.279407 73.40563-69.859556V337.189926c0-38.58963-32.862815-69.869037-73.40563-69.869037H268.544z m0-73.737482h467.949037c81.08563 0 146.811259 62.445037 146.811259 139.472593V856.082963c0 77.027556-65.72563 139.472593-146.811259 139.472593H268.544c-81.08563 0-146.811259-62.445037-146.811259-139.472593V333.056c0-77.027556 65.72563-139.472593 146.811259-139.472593z" fill="#635FF1" /></svg>