<?xml version="1.0" standalone="no"?><!DOCTYPE svg PUBLIC "-//W3C//DTD SVG 1.1//EN" "http://www.w3.org/Graphics/SVG/1.1/DTD/svg11.dtd"><svg class="icon" width="64px" height="64.00px" viewBox="0 0 1024 1024" version="1.1" xmlns="http://www.w3.org/2000/svg"><path d="M833.166222 193.374815l149.096297 262.523259c23.580444 41.519407 23.220148 92.880593-0.948149 134.731852L828.510815 855.296c-24.168296 41.851259-68.456296 67.849481-116.214519 68.190815l-301.89037 2.133333a131.233185 131.233185 0 0 1-115.275852-66.550518L146.033778 596.54637c-23.580444-41.519407-23.220148-92.880593 0.948148-134.731851l152.803555-264.666075c24.168296-41.851259 68.456296-67.849481 116.214519-68.190814l301.89037-2.133334a131.233185 131.233185 0 0 1 115.275852 66.550519z" fill="#6160F4" fill-opacity=".1" /><path d="M690.488889 159.118222a70.447407 70.447407 0 0 0-61.013333-35.223703H311.201185a70.447407 70.447407 0 0 0-61.003852 35.233185L91.050667 434.773333a70.447407 70.447407 0 0 0 0 70.447408l159.127703 275.645629a70.447407 70.447407 0 0 0 61.003852 35.223704l318.274371-0.009481a70.447407 70.447407 0 0 0 61.013333-35.233186l159.137185-275.645629a70.447407 70.447407 0 0 0 0-70.447408L690.49837 159.118222z m54.404741-31.781926l160.218074 274.631111c25.344 43.434667 25.581037 96.805926 0.635259 140.013037L748.013037 815.179852c-24.936296 43.207111-71.281778 69.688889-121.571556 69.461333l-317.952-1.441185a142.40237 142.40237 0 0 1-122.206814-70.551704L26.074074 538.007704c-25.334519-43.425185-25.581037-96.805926-0.635259-140.013037l157.733926-273.199408c24.936296-43.207111 71.291259-69.688889 121.571555-69.451852l317.952 1.431704a142.40237 142.40237 0 0 1 122.216297 70.561185z" fill="#6160F4" /><path d="M469.333333 663.703704C356.750222 663.703704 265.481481 572.434963 265.481481 459.851852S356.750222 256 469.333333 256 673.185185 347.268741 673.185185 459.851852 581.916444 663.703704 469.333333 663.703704z m0-75.851852C540.027259 587.851852 597.333333 530.545778 597.333333 459.851852S540.027259 331.851852 469.333333 331.851852 341.333333 389.157926 341.333333 459.851852 398.639407 587.851852 469.333333 587.851852z" fill="#6160F4" /></svg>