<?xml version="1.0" standalone="no"?><!DOCTYPE svg PUBLIC "-//W3C//DTD SVG 1.1//EN" "http://www.w3.org/Graphics/SVG/1.1/DTD/svg11.dtd"><svg class="icon" width="64px" height="64.00px" viewBox="0 0 1024 1024" version="1.1" xmlns="http://www.w3.org/2000/svg"><path d="M395.121778 341.333333h387.034074c57.15437 0 104.173037 57.268148 112.146963 124.909037l52.650666 424.049778c9.358222 71.822222-37.12 133.707852-105.528888 133.707852H356.266667c-67.802074 0-115.835259-60.984889-109.122371-132.361481l38.532741-424.144593C291.65037 399.265185 337.483852 341.333333 395.121778 341.333333z" fill="#635FF1" fill-opacity=".1" /><path d="M578.085926 485.025185c43.700148 44.439704 37.470815 131.195259-18.185482 190.672593-26.093037 27.913481-55.495111 46.904889-83.882666 58.718815a66.588444 66.588444 0 0 1-51.247408 0.018963c-28.444444-11.832889-57.837037-30.824296-83.920592-58.718815-55.675259-59.496296-61.895111-146.299259-18.176-190.710519 34.550519-35.100444 88.50963-39.291259 127.696592-12.581926 39.196444-26.709333 93.184-22.518519 127.715556 12.600889z m-73.40563 139.567408c16.355556-17.47437 25.050074-37.30963 26.415408-56.32 1.042963-14.544593-2.522074-26.30163-6.930963-30.786371a24.443259 24.443259 0 0 0-34.958222 0.018963l-3.128889 3.185778a50.081185 50.081185 0 0 1-71.405037 0l-3.138371-3.185778a24.443259 24.443259 0 0 0-34.977185 0c-4.389926 4.465778-7.964444 16.213333-6.921481 30.757926 1.374815 19.01037 10.069333 38.855111 26.43437 56.338963 17.019259 18.204444 36.143407 31.004444 54.300444 39.10163 18.147556-8.097185 37.281185-20.897185 54.309926-39.111111zM310.708148 246.518519L237.037037 228.200296C262.200889 122.766222 360.504889 37.925926 459.851852 37.925926S657.502815 122.766222 682.666667 228.200296L608.995556 246.518519c-17.142519-71.822222-85.940148-131.204741-149.143704-131.204741S327.850667 174.696296 310.708148 246.518519z" fill="#6160F4" /><path d="M245.987556 265.291852c-16.896 0-39.537778 28.690963-42.951112 67.726222L161.355852 792.746667c-3.318519 35.384889 16.630519 60.776296 42.628741 60.776296H728.462222c25.334519 0 43.614815-24.395852 39.025778-59.657482l-56.983704-459.84237c-4.626963-39.348148-28.690963-68.721778-46.117926-68.721778H245.987556z m0-75.662222h418.417777c61.781333 0 112.611556 62.046815 121.230223 135.319703l56.917333 459.377778C852.679111 862.151111 802.427259 929.185185 728.471704 929.185185H203.984593C130.683259 929.185185 78.753185 863.118222 85.997037 785.796741l41.66163-459.491556C134.134519 252.387556 183.665778 189.62963 245.997037 189.62963z" fill="#635FF1" /></svg>