<svg id="Layer_1" enable-background="new 0 0 511.334 511.334" height="512" viewBox="0 0 511.334 511.334" width="512" xmlns="http://www.w3.org/2000/svg"><path d="m404.997 170.337c0 82.722-67.113 149.33-149.33 149.33-82.078 0-149.33-66.471-149.33-149.33 0-82.48 66.86-149.34 149.33-149.34s149.33 66.86 149.33 149.34z" fill="#99d856"/><circle cx="255.667" cy="170.334" fill="#ffdfba" r="42.667"/><path d="m349.087 286.837c-54.452 43.723-132.213 43.864-186.84 0 10-42.33 48.03-73.83 93.42-73.83s83.42 31.5 93.42 73.83z" fill="#e0e0e0"/><path d="m426 170.334c0-93.923-76.411-170.334-170.333-170.334s-170.334 76.411-170.334 170.334c0 53.049 24.381 100.507 62.521 131.77.785.742 1.631 1.422 2.531 2.04 61.77 48.705 148.755 48.732 210.559.001.902-.618 1.748-1.299 2.534-2.042 38.142-31.263 62.522-78.721 62.522-131.769zm-170.333-128.334c107.292 0 166.623 124.225 100.801 207.673-11.117-18.85-27.2-34.397-47.398-44.74 27.373-42.103-2.987-98.266-53.403-98.266-50.422 0-80.773 56.166-53.403 98.266-20.189 10.337-36.276 25.882-47.398 44.74-65.853-83.487-6.449-207.673 100.801-207.673zm0 150c-11.947 0-21.667-9.72-21.667-21.666 0-11.947 9.72-21.667 21.667-21.667s21.667 9.72 21.667 21.667c0 11.946-9.72 21.666-21.667 21.666zm-68.652 86.714c26.05-59.529 111.246-59.545 137.303 0-41.854 26.606-95.41 26.63-137.303 0z"/><path d="m313.183 390.15c-8.201-8.201-21.498-8.201-29.699 0l-27.817 27.817-27.818-27.817c-8.201-8.2-21.497-8.2-29.698 0-8.201 8.201-8.201 21.498 0 29.699l27.817 27.817-27.817 27.817c-8.201 8.201-8.201 21.498 0 29.699 8.199 8.199 21.497 8.202 29.698 0l27.818-27.817 27.817 27.817c8.203 8.201 21.497 8.2 29.699 0 8.2-8.201 8.2-21.498 0-29.699l-27.817-27.817 27.817-27.817c8.201-8.201 8.201-21.497 0-29.699z"/><path d="m477.366 447.667 27.817-27.817c8.2-8.201 8.2-21.498 0-29.699-8.201-8.201-21.498-8.201-29.699 0l-27.817 27.817-27.817-27.817c-8.201-8.201-21.498-8.201-29.699 0-8.2 8.201-8.2 21.498 0 29.699l27.817 27.817-27.817 27.817c-8.2 8.201-8.2 21.498 0 29.699 8.2 8.2 21.498 8.201 29.699 0l27.817-27.817 27.817 27.817c8.2 8.2 21.498 8.201 29.699 0 8.2-8.201 8.2-21.498 0-29.699z"/><path d="m121.182 390.15c-8.201-8.201-21.498-8.199-29.698 0l-27.817 27.818-27.818-27.818c-8.2-8.2-21.497-8.2-29.698 0-8.201 8.201-8.201 21.498 0 29.699l27.817 27.817-27.817 27.818c-8.201 8.201-8.201 21.498 0 29.699 8.2 8.2 21.496 8.201 29.698 0l27.817-27.818 27.817 27.818c8.2 8.2 21.496 8.201 29.698 0 8.201-8.201 8.201-21.498 0-29.699l-27.817-27.817 27.817-27.817c8.203-8.202 8.203-21.498.001-29.7z"/></svg>