<svg id="Capa_1" enable-background="new 0 0 504.5 504.5" height="512" viewBox="0 0 504.5 504.5" width="512" xmlns="http://www.w3.org/2000/svg"><g><circle cx="234.884" cy="288.064" fill="#eaf6ff" r="208.936"/><path d="m443.82 288.06c0 115.4-93.54 208.94-208.94 208.94-4.7 0-9.36-.15-13.98-.46 108.87-7.19 194.96-97.78 194.96-208.48 0-110.69-86.09-201.28-194.96-208.47 4.62-.3 9.28-.46 13.98-.46 115.4 0 208.94 93.54 208.94 208.93z" fill="#c8effe"/><g><g><path d="m242.38 79.13v42.59c0 4.14-3.35 7.5-7.5 7.5-4.14 0-7.5-3.36-7.5-7.5v-42.59c0-4.14 3.36-7.5 7.5-7.5 4.15 0 7.5 3.36 7.5 7.5z" fill="#c8effe"/></g><g><path d="m451.32 288.06c0 4.15-3.36 7.5-7.5 7.5h-42.59c-4.14 0-7.5-3.35-7.5-7.5 0-4.14 3.36-7.5 7.5-7.5h42.59c4.14 0 7.5 3.36 7.5 7.5z" fill="#c8effe"/></g><g><path d="m242.38 454.41v42.59c0 4.14-3.35 7.5-7.5 7.5-4.14 0-7.5-3.36-7.5-7.5v-42.59c0-4.14 3.36-7.5 7.5-7.5 4.15 0 7.5 3.36 7.5 7.5z" fill="#c8effe"/></g><g><path d="m68.539 295.564h-42.591c-4.142 0-7.5-3.358-7.5-7.5s3.358-7.5 7.5-7.5h42.591c4.142 0 7.5 3.358 7.5 7.5s-3.358 7.5-7.5 7.5z" fill="#c8effe"/></g><g><path d="m130.392 476.54c-1.272 0-2.562-.324-3.743-1.006-3.587-2.071-4.816-6.658-2.745-10.245l11.573-20.045c2.071-3.587 6.657-4.817 10.245-2.745 3.587 2.071 4.816 6.658 2.745 10.245l-11.573 20.045c-1.39 2.405-3.911 3.751-6.502 3.751z" fill="#c8effe"/></g><g><path d="m422.35 396.3c-1.39 2.41-3.91 3.75-6.5 3.75-1.27 0-2.56-.32-3.74-1.01l-20.05-11.57c-.34-.2-.66-.42-.96-.66-2.83-2.28-3.65-6.34-1.78-9.58 1.7-2.95 5.1-4.31 8.24-3.54.69.16 1.36.42 2 .79l20.05 11.57c3.59 2.07 4.81 6.66 2.74 10.25z" fill="#c8effe"/></g><g><path d="m73.948 202.653c-1.272 0-2.562-.324-3.743-1.006l-20.045-11.573c-3.587-2.071-4.816-6.658-2.745-10.245s6.658-4.817 10.245-2.745l20.045 11.573c3.587 2.071 4.816 6.658 2.745 10.245-1.389 2.405-3.91 3.751-6.502 3.751z" fill="#c8effe"/></g><g><path d="m419.61 190.07-20.05 11.58c-.64.37-1.31.63-2 .79-.57.14-1.16.21-1.74.21-2.59 0-5.11-1.34-6.5-3.75-1.87-3.25-1.05-7.3 1.78-9.58.3-.24.62-.46.96-.66l20.05-11.58c3.59-2.07 8.17-.84 10.24 2.75s.85 8.17-2.74 10.24z" fill="#c8effe"/></g><g><path d="m53.917 400.051c-2.592 0-5.113-1.345-6.502-3.751-2.071-3.587-.842-8.174 2.745-10.245l20.045-11.573c3.587-2.072 8.174-.843 10.245 2.745 2.071 3.587.842 8.174-2.745 10.245l-20.045 11.572c-1.181.683-2.471 1.007-3.743 1.007z" fill="#c8effe"/></g><g><path d="m343.12 475.53c-1.18.68-2.47 1.01-3.74 1.01-2.6 0-5.12-1.35-6.51-3.75l-7.33-12.7-4.24-7.35c-2.07-3.58-.84-8.17 2.75-10.24 3.58-2.07 8.17-.84 10.24 2.74l3.36 5.82 8.21 14.23c2.08 3.59.85 8.17-2.74 10.24z" fill="#c8effe"/></g><g><path d="m141.978 134.636c-2.592 0-5.113-1.345-6.502-3.751l-11.573-20.045c-2.071-3.587-.842-8.174 2.745-10.245s8.174-.842 10.245 2.745l11.573 20.045c2.071 3.587.842 8.174-2.745 10.245-1.181.682-2.47 1.006-3.743 1.006z" fill="#c8effe"/></g><g fill="#99e6fc"><path d="m242.38 79.13v3c-4.94-.85-9.95-1.52-15-2.01v-.99c0-4.14 3.36-7.5 7.5-7.5 4.15 0 7.5 3.36 7.5 7.5z"/><path d="m227.38 496.01c5.05-.49 10.06-1.16 15-2.01v3c0 4.14-3.35 7.5-7.5 7.5-4.14 0-7.5-3.36-7.5-7.5z"/><path d="m345.86 465.29c2.08 3.59.85 8.17-2.74 10.24-1.18.68-2.47 1.01-3.74 1.01-2.6 0-5.12-1.35-6.51-3.75l-7.33-12.7c4.15-2.86 8.19-5.88 12.11-9.03z"/><path d="m422.35 396.3c-1.39 2.41-3.91 3.75-6.5 3.75-1.27 0-2.56-.32-3.74-1.01l-20.05-11.57c-.34-.2-.66-.42-.96-.66 2.3-4.29 4.46-8.66 6.46-13.12.69.16 1.36.42 2 .79l20.05 11.57c3.59 2.07 4.81 6.66 2.74 10.25z"/><path d="m397.56 202.44c-2-4.46-4.16-8.83-6.46-13.12.3-.24.62-.46.96-.66l20.05-11.58c3.59-2.07 8.17-.84 10.24 2.75s.85 8.17-2.74 10.24l-20.05 11.58c-.64.37-1.31.63-2 .79z"/><path d="m451.32 288.06c0 4.15-3.36 7.5-7.5 7.5h-28.09c.09-2.49.13-4.99.13-7.5s-.04-5.01-.13-7.5h28.09c4.14 0 7.5 3.36 7.5 7.5z"/></g></g><g><path d="m234.884 504.5c-57.812 0-112.164-22.513-153.043-63.393s-63.393-95.231-63.393-153.043 22.513-112.164 63.392-153.043 95.231-63.393 153.043-63.393c57.813 0 112.164 22.513 153.044 63.393 40.879 40.879 63.393 95.231 63.393 153.043s-22.513 112.164-63.393 153.043c-40.879 40.88-95.231 63.393-153.043 63.393zm0-417.872c-111.072 0-201.436 90.364-201.436 201.436s90.364 201.436 201.436 201.436 201.436-90.364 201.436-201.436-90.364-201.436-201.436-201.436z" fill="#0593fc"/></g><path d="m327.8 288.06c0 34.39-18.68 64.41-46.45 80.48l-46.47-80.48h-92.91c0-51.31 41.6-92.91 92.91-92.91 51.32 0 92.92 41.6 92.92 92.91z" fill="#fd3581"/><path d="m327.8 288.06c0 34.39-18.68 64.41-46.45 80.48l-7.46-12.92c17.94-16.94 29.13-40.94 29.13-67.56 0-47.11-35.07-86.03-80.53-92.08 4.05-.55 8.19-.83 12.39-.83 51.32 0 92.92 41.6 92.92 92.91z" fill="#fe0364"/><path d="m465.017 0h-116.185c-11.618 0-21.036 9.418-21.036 21.036v165.881c0 5.403 6.532 8.108 10.352 4.288l22.989-22.989c6.377-6.377 15.026-9.96 24.045-9.96h79.833c11.618 0 21.036-9.418 21.036-21.036v-116.184c.001-11.618-9.417-21.036-21.034-21.036z" fill="#ffd15b"/><path d="m486.05 21.04v116.18c0 11.62-9.42 21.04-21.03 21.04h-23.09c11.62 0 21.03-9.42 21.03-21.04v-116.18c0-11.62-9.41-21.04-21.03-21.04h23.09c11.61 0 21.03 9.42 21.03 21.04z" fill="#ffc344"/><g><path d="m220.9 295.564h-116.646c-4.142 0-7.5-3.358-7.5-7.5s3.358-7.5 7.5-7.5h116.646c4.142 0 7.5 3.358 7.5 7.5s-3.358 7.5-7.5 7.5z" fill="#99e6fc"/></g><g><path d="m300.206 408.694c-2.592 0-5.113-1.345-6.502-3.751l-57.814-100.764c-2.071-3.587-.842-8.174 2.745-10.245 3.586-2.071 8.174-.842 10.245 2.745l57.813 100.763c2.071 3.587.842 8.174-2.745 10.245-1.18.683-2.47 1.007-3.742 1.007z" fill="#99e6fc"/></g><path d="m427.21 69.968c4.85-5.056 7.839-11.908 7.839-19.45 0-15.508-12.617-28.125-28.125-28.125s-28.124 12.617-28.124 28.125c0 7.542 2.99 14.395 7.839 19.45-9.357 6.462-15.504 17.256-15.504 29.463 0 19.734 16.055 35.789 35.789 35.789s35.789-16.055 35.789-35.789c0-12.207-6.147-23.001-15.503-29.463zm-33.41-19.45c0-7.237 5.887-13.125 13.124-13.125s13.125 5.888 13.125 13.125-5.888 13.124-13.125 13.124c-7.236 0-13.124-5.887-13.124-13.124zm13.124 69.702c-11.463 0-20.789-9.326-20.789-20.789s9.326-20.789 20.789-20.789 20.789 9.326 20.789 20.789-9.326 20.789-20.789 20.789z" fill="#fd3581"/><circle cx="234.884" cy="288.064" fill="#0593fc" r="18.826"/></g></svg>